# xmcd CD database file
#
# Track frame offsets:
#	150
#	9573
#	22795
#	42118
#	55258
#	70914
#	85489
#	99663
#	109814
#	125719
#	134405
#	145423
#
# Disc length: 2132 seconds
#
# Revision: 0
# Processed by: cddbd v1.5.2PL0 Copyright (c) Steve Scherf et al.
# Submitted via: CDex 1.70beta2
#
DISCID=a708520c
DTITLE=Dixon, Freddy - Cdn. - OVM - ON - OVCMHoF - 2000 - Common Ground
DYEAR=1900
DGENRE=Country
TTITLE0=Common Ground
TTITLE1=One More Country Song
TTITLE2=Agustus Barnett
TTITLE3=Alberta Bound
TTITLE4=Old Salty
TTITLE5=Black Donnellys
TTITLE6=Alberta Cowboy
TTITLE7=Boyd Gang
TTITLE8=He Went to LA
TTITLE9=Bill Johnson - St. Lawrence River Pirate
TTITLE10=Boy From Belfast
TTITLE11=Farewell to Ireland
EXTD=
EXTT0=
EXTT1=
EXTT2=
EXTT3=
EXTT4=
EXTT5=
EXTT6=
EXTT7=
EXTT8=
EXTT9=
EXTT10=
EXTT11=
PLAYORDER=
